<svg version="1.1" id="Layer_1" xmlns="http://www.w3.org/2000/svg" xmlns:xlink="http://www.w3.org/1999/xlink" x="0px" y="0px"
	 width="100%" viewBox="0 0 400 400" enable-background="new 0 0 400 400" xml:space="preserve">
<path fill="#000000" opacity="1.000000" stroke="none" 
	d="
M150.197540,49.132309 
	C164.938324,40.616394 179.405136,32.358715 193.761856,23.913841 
	C198.684998,21.017965 203.168747,20.763140 208.279434,23.676611 
	C253.423462,49.411980 298.510529,75.253922 343.953125,100.453629 
	C353.799530,105.913857 357.806702,111.879868 357.487091,123.703033 
	C356.546417,158.500275 357.169891,193.344940 357.469940,228.168564 
	C357.634918,247.318832 358.324585,266.465790 358.901611,285.610504 
	C359.063446,290.979309 357.183258,294.483337 352.242340,297.228668 
	C303.905670,324.085999 255.675613,351.135559 207.468475,378.225189 
	C203.339783,380.545227 199.720108,381.176880 195.338882,378.709717 
	C147.152069,351.574402 98.947800,324.468689 50.590668,297.639038 
	C44.869843,294.464996 42.701557,290.316589 43.206326,284.357025 
	C43.910976,276.037567 43.757053,267.711182 43.845688,259.384094 
	C44.221611,224.067642 44.523556,188.750153 45.025520,153.435501 
	C45.214710,140.125381 46.468285,126.818451 44.866722,113.520409 
	C44.328861,109.054451 47.129910,106.868317 50.478600,104.995041 
	C69.086281,94.585777 87.694542,84.177559 106.296814,73.758629 
	C120.829056,65.619278 135.352859,57.464867 150.197540,49.132309 
M211.443741,94.014099 
	C208.149658,88.182442 204.855576,82.350784 201.002670,75.529808 
	C166.309708,138.320984 132.298462,199.878342 98.058907,261.848938 
	C166.803375,261.848938 234.736755,261.848938 303.907379,261.848938 
	C273.385010,205.070969 242.341797,150.000702 211.443741,94.014099 
M91.359894,248.216278 
	C92.259895,250.457642 92.298546,253.059265 94.070717,255.192917 
	C97.443932,251.933731 98.568710,248.628708 96.441933,244.353729 
	C94.593025,240.637268 93.128761,236.723053 91.614380,232.849365 
	C90.894936,231.009064 89.919876,228.702682 92.395241,227.596970 
	C95.078316,226.398483 96.268913,228.661209 97.167725,230.673462 
	C98.702866,234.110321 100.103508,237.607269 101.664978,241.327545 
	C108.560089,233.235001 108.652626,232.139343 103.630119,224.160202 
	C101.946548,221.485565 100.257980,218.809830 98.702766,216.060455 
	C97.940628,214.713104 97.550034,213.083893 99.132118,212.028290 
	C100.770027,210.935425 102.413261,211.464050 103.553299,212.931290 
	C104.875923,214.633530 105.954689,216.522888 107.199509,218.288589 
	C108.570961,220.233917 108.925896,223.016052 112.013565,224.062408 
	C114.693665,219.254044 117.332497,214.476379 120.016739,209.724380 
	C121.155205,207.708923 120.316452,206.238678 118.856499,204.886307 
	C116.660965,202.852570 114.382233,200.900421 112.294922,198.761322 
	C111.139801,197.577576 109.955414,195.963837 111.295799,194.336670 
	C112.723671,192.603271 114.689911,193.186783 116.276466,194.237259 
	C117.501381,195.048248 118.496536,196.222961 119.537758,197.290680 
	C120.973381,198.762802 121.645813,201.171417 124.564682,201.183731 
	C126.851601,196.883789 129.923462,192.940720 131.409286,188.279022 
	C130.460403,186.612808 128.880737,186.281998 127.686089,185.430313 
	C125.989594,184.220810 124.324936,182.765289 125.535019,180.515717 
	C126.694473,178.360260 128.916779,178.979828 130.365494,179.996201 
	C134.338821,182.783676 136.258072,180.986404 137.862915,177.315918 
	C138.791321,175.192551 140.088577,173.221542 141.309799,171.237381 
	C142.841965,168.748047 142.427048,166.964920 139.740250,165.606201 
	C137.071747,164.256729 134.435425,162.812332 131.926041,161.191254 
	C130.432358,160.226318 129.603958,158.641754 130.736404,156.887543 
	C131.752457,155.313644 133.366928,155.599350 134.770340,156.245987 
	C136.427872,157.009720 137.991043,157.984879 139.570053,158.911133 
	C145.803009,162.567474 145.795700,162.571594 149.263855,156.547455 
	C150.261017,154.815430 151.303574,153.109436 152.293671,151.373459 
	C153.466827,149.316528 154.153244,147.442825 151.194382,146.114319 
	C149.635971,145.414612 148.316269,144.091354 149.198303,142.130264 
	C150.078186,140.173920 151.979446,140.722900 153.602631,140.784897 
	C155.155441,140.844193 156.945267,142.228668 158.147491,140.248566 
	C160.536926,136.313141 163.346283,132.568695 164.458527,128.031372 
	C162.948593,126.130295 161.015564,126.543106 159.247162,126.357216 
	C156.771072,126.096947 154.294373,125.821144 151.832596,125.453712 
	C150.051636,125.187897 148.445084,124.318420 148.551224,122.328720 
	C148.680801,119.899452 150.731918,119.571251 152.627197,119.715477 
	C156.934570,120.043221 161.232285,120.514091 165.526001,120.997192 
	C167.062546,121.170074 168.699448,121.467522 169.568314,119.897659 
	C171.913879,115.659698 174.102753,111.335007 176.935181,105.936684 
	C169.517273,107.199394 163.669998,108.311935 157.782471,109.137138 
	C155.543106,109.451004 152.560760,109.722794 152.039795,106.678543 
	C151.470154,103.349724 154.623810,103.249329 156.784607,102.891937 
	C163.349152,101.806183 169.951691,100.951630 176.535629,99.981293 
	C181.577194,99.238266 184.602646,95.613098 184.943619,89.651794 
	C180.651443,90.513084 176.466003,91.598396 172.211517,92.114586 
	C169.660660,92.424080 165.683395,93.782249 165.232712,89.766716 
	C164.850708,86.363014 168.681366,86.175117 171.203674,85.919975 
	C175.691071,85.466064 180.050095,84.227829 184.489426,83.781700 
	C190.584534,83.169174 192.854660,79.350876 194.524704,73.503693 
	C146.909439,87.208946 99.411095,99.020721 52.222363,113.369247 
	C54.750526,121.921661 57.044666,129.550537 59.260883,137.201996 
	C69.904701,173.949631 80.527466,210.703384 91.359894,248.216278 
M249.961456,120.434433 
	C245.623459,123.073242 240.179153,121.749588 235.751389,124.108582 
	C238.971771,134.093384 239.665359,134.518692 249.346390,132.673172 
	C249.837173,132.579590 250.331787,132.503952 250.826645,132.434235 
	C252.709671,132.168930 254.775681,131.995804 255.441818,134.227402 
	C256.213928,136.814117 254.017593,137.504013 252.202484,138.427917 
	C249.879608,139.610321 246.776688,138.453262 244.663681,141.089203 
	C246.242538,143.890106 246.158463,148.295700 251.359497,147.298553 
	C253.139206,146.957336 254.837128,147.043060 255.724487,148.773407 
	C256.738312,150.750320 255.025055,151.610367 253.821045,152.798492 
	C250.342194,156.231522 254.396942,158.423340 255.527359,160.962936 
	C256.661224,163.510284 258.745361,162.661804 260.565765,161.465637 
	C263.343079,159.640732 265.940125,157.498428 269.222351,156.569656 
	C270.658600,156.163239 272.237396,155.469406 273.175903,157.290024 
	C274.098572,159.079926 273.388062,160.537811 271.772614,161.542557 
	C269.228149,163.125122 266.728882,164.812851 264.057892,166.151642 
	C260.290833,168.039810 259.937775,170.487167 262.293182,173.698456 
	C263.156433,174.875397 263.497925,176.483414 265.380432,177.175827 
	C266.365631,176.675034 267.512787,176.047714 268.696533,175.499313 
	C271.228424,174.326279 274.338440,170.912537 276.441620,174.455872 
	C278.901886,178.600784 274.144440,179.572891 271.545502,180.759109 
	C268.224762,182.274750 267.825745,184.197495 269.658691,186.993088 
	C270.634857,188.481857 271.115845,190.385117 273.223480,191.317307 
	C273.935669,190.831146 274.807526,190.370392 275.514496,189.728104 
	C277.610016,187.824326 279.569336,185.765732 281.718964,183.928009 
	C283.427399,182.467422 285.655792,181.207840 287.478302,183.250839 
	C289.243805,185.229919 287.312653,187.011871 285.946411,188.375641 
	C284.065918,190.252731 281.912872,191.853760 279.918365,193.620255 
	C275.191864,197.806320 275.297272,199.902283 280.677307,204.471359 
	C281.940002,202.973709 283.121429,201.384003 284.500031,199.989227 
	C285.938416,198.533936 287.421539,195.913895 289.784058,197.790924 
	C292.178253,199.693130 290.469879,202.014069 289.178070,203.992630 
	C288.814667,204.549225 288.402069,205.076721 287.980957,205.592163 
	C282.666077,212.097351 282.700195,213.034714 288.824615,219.936554 
	C289.870697,217.497162 290.890503,215.254120 291.797882,212.966461 
	C292.779297,210.492126 293.520203,207.914505 294.619537,205.497223 
	C295.555878,203.438385 296.552490,200.591690 299.553040,201.823196 
	C302.391693,202.988297 300.924835,205.534668 300.216217,207.467484 
	C298.554474,212.000107 296.763550,216.486847 294.954163,220.963577 
	C292.003296,228.264633 292.823273,232.018524 299.063843,238.289932 
	C301.841736,233.369980 302.588135,227.883667 304.313690,222.762558 
	C305.533295,219.143127 306.314117,215.377533 307.473907,211.735474 
	C307.981995,210.140152 308.961731,208.460098 311.068146,209.141800 
	C312.966309,209.756104 313.241211,211.549530 312.988098,213.282974 
	C312.772675,214.758194 312.332672,216.206360 311.921417,217.646301 
	C309.681641,225.488220 307.928009,233.519913 305.003601,241.099091 
	C302.704315,247.058105 304.431305,251.265701 308.490570,255.680099 
	C309.023468,254.365417 309.611267,253.220581 309.961487,252.007187 
	C322.883331,207.236694 335.735199,162.445877 348.765747,117.707092 
	C349.972321,113.564507 348.766083,112.252083 344.890289,111.197266 
	C303.940765,100.052742 263.051483,88.686966 222.098557,77.555161 
	C217.492722,76.303185 212.952713,74.299942 207.985703,74.278214 
	C209.217026,79.937271 212.624603,82.345428 217.875198,82.991951 
	C222.651077,83.580002 227.368652,84.690781 232.084412,85.699760 
	C235.013611,86.326485 239.680969,86.192924 238.913834,90.299316 
	C238.223358,93.995270 233.884003,92.267761 231.129562,91.935112 
	C226.092422,91.326790 221.330872,89.077950 216.037659,88.997467 
	C219.689026,98.512093 220.068314,98.779129 229.259338,98.702103 
	C231.424423,98.683960 233.601990,98.583519 235.751877,98.771683 
	C237.876129,98.957611 240.638824,99.108421 240.617279,101.920113 
	C240.595779,104.728378 237.770905,104.684547 235.694336,105.079002 
	C232.236252,105.735863 228.840897,103.651970 225.114059,104.764481 
	C225.364365,108.327545 227.843567,110.795143 229.171677,113.750557 
	C230.700027,117.151543 233.112274,118.228355 236.858368,117.239998 
	C240.208878,116.356010 243.724640,115.924667 247.192795,115.717705 
	C249.764755,115.564217 252.076920,116.331505 249.961456,120.434433 
M214.475494,358.976471 
	C243.035889,329.120636 272.041107,299.681519 299.999512,268.724731 
	C296.668854,267.802063 294.706207,268.750000 292.959381,270.561371 
	C290.300354,273.318573 287.502991,275.944611 284.892517,278.745789 
	C281.943542,281.910217 279.212158,285.278748 276.233887,288.413910 
	C274.848816,289.871979 272.958710,291.275238 271.046387,289.372955 
	C269.334106,287.669739 270.662323,285.985382 271.874786,284.549316 
	C272.841278,283.404602 273.907013,282.344330 274.907684,281.227722 
	C278.522858,277.193542 282.129120,273.151459 286.068115,268.743805 
	C278.425354,267.581390 272.054443,267.300964 268.016327,274.996460 
	C266.042389,278.758179 263.232239,282.231720 259.919464,285.084778 
	C258.450409,286.350006 256.746979,288.106628 254.737122,286.108704 
	C252.992142,284.374054 254.399475,282.678986 255.485901,281.236816 
	C256.987915,279.242920 258.761963,277.450317 260.218750,275.427002 
	C261.771576,273.270264 264.231018,271.614441 264.740570,268.241425 
	C262.309723,268.241425 260.292877,268.460236 258.340454,268.198517 
	C253.398987,267.536102 250.123154,269.181946 248.166153,273.996887 
	C246.992218,276.885254 245.020798,279.479004 243.215378,282.071167 
	C241.916855,283.935577 239.955627,285.534576 237.748123,283.931610 
	C235.596924,282.369507 237.120224,280.245483 238.130341,278.598114 
	C240.090256,275.401764 242.662613,272.548706 243.810593,268.762604 
	C233.779358,267.326782 233.786224,267.329865 230.080673,275.613556 
	C229.537994,276.826721 228.987183,278.054169 228.274216,279.168854 
	C227.322449,280.656891 225.981339,281.830841 224.121536,280.919495 
	C222.185333,279.970673 222.672256,278.198181 223.117218,276.543335 
	C223.826157,273.906616 226.195084,271.785065 225.706070,268.240356 
	C220.510483,269.191132 213.527237,264.815857 212.088974,274.247772 
	C211.919678,275.358002 210.630783,276.060089 209.298035,275.841553 
	C208.210556,275.663239 207.236847,274.862335 207.252151,273.908142 
	C207.371429,266.469543 201.993790,268.416718 197.826050,268.259247 
	C195.149292,268.158173 194.362396,269.355743 194.765823,271.984863 
	C195.166824,274.598206 195.178360,277.284546 195.187668,279.939453 
	C195.192627,281.357117 194.461639,282.582062 192.940277,282.859619 
	C191.124161,283.191040 190.207764,282.013824 189.646973,280.485718 
	C188.643112,277.750153 188.849167,274.888977 188.903946,272.068939 
	C188.983810,267.957428 186.154800,268.051788 183.435516,268.284058 
	C180.953857,268.496002 177.295776,266.832825 177.216843,271.673187 
	C177.182571,273.773560 177.578232,276.569458 174.467987,276.598267 
	C171.676208,276.624115 171.416321,273.909027 171.018509,271.816925 
	C170.646103,269.858459 170.175735,268.245117 167.715134,268.276489 
	C164.275131,268.320343 160.834152,268.287567 157.062469,268.287567 
	C157.425629,271.839020 159.468231,274.012970 160.384033,276.615265 
	C161.344025,279.343170 164.706680,282.988556 160.732697,284.782776 
	C156.856476,286.532867 156.018845,281.705292 154.597275,279.121521 
	C153.237686,276.650452 152.286423,273.956421 151.121246,271.375977 
	C150.415833,269.813782 149.544006,268.360535 147.546173,268.344391 
	C143.820221,268.314270 140.093872,268.335754 135.867203,268.335754 
	C137.044876,270.813110 137.874084,272.426361 138.583282,274.090759 
	C139.151062,275.423218 139.115326,276.747345 137.743149,277.620087 
	C136.432022,278.453949 135.112045,278.130920 134.083862,277.134399 
	C133.139847,276.219482 132.325134,275.141876 131.591980,274.043457 
	C127.330742,267.659210 125.323174,266.946198 117.130615,269.055359 
	C117.146317,270.955933 118.720070,271.886719 119.780312,273.052124 
	C124.039406,277.733734 128.465546,282.264221 132.690979,286.975189 
	C134.058441,288.499817 136.254944,290.484039 134.140335,292.552856 
	C131.850845,294.792694 129.919876,292.557831 128.226929,290.968323 
	C127.378860,290.172058 126.635292,289.264465 125.844833,288.406860 
	C120.426254,282.527985 115.022049,276.635712 109.580200,270.778442 
	C108.009552,269.087891 106.313988,267.563782 102.748718,269.483765 
	C135.608383,304.213287 168.044449,338.495117 199.901428,372.164917 
	C204.880356,367.681610 209.431992,363.583099 214.475494,358.976471 
M258.311340,324.028503 
	C254.488129,324.972839 248.984756,330.409698 250.206665,332.378876 
	C252.851196,336.640778 249.514389,337.939056 247.034103,337.984070 
	C241.214172,338.089722 238.914032,342.298828 235.561005,345.869507 
	C237.535812,346.842529 240.162933,346.901276 239.670914,349.688751 
	C239.231064,352.180573 237.050674,353.278442 234.938507,353.562347 
	C226.957687,354.635040 221.619003,359.390839 216.765854,366.062103 
	C261.218292,341.156952 305.137421,316.550568 349.056549,291.944214 
	C349.008728,291.424957 348.960907,290.905701 348.913116,290.386444 
	C344.133942,289.970001 340.955292,281.674530 334.658173,288.519409 
	C333.957611,289.280884 332.800171,289.061798 331.861542,288.494934 
	C330.685089,287.784454 330.377686,286.701294 330.727600,285.480438 
	C331.085968,284.230286 331.619690,283.030365 332.139709,281.639893 
	C328.448425,279.519806 325.327545,276.729462 320.981140,275.998993 
	C319.906067,277.899292 319.043457,279.702667 317.920532,281.326080 
	C316.913422,282.782043 315.415649,283.709991 313.625671,282.705109 
	C311.955170,281.767273 312.320709,280.109283 312.841461,278.697723 
	C313.576263,276.706024 314.533112,274.796295 315.357666,272.935760 
	C309.834808,267.890289 309.042236,267.857117 306.220642,272.427399 
	C307.203400,274.197327 309.276978,275.798431 307.620789,278.177521 
	C306.864807,279.263458 305.461975,279.599548 304.490723,278.903717 
	C300.741119,276.217438 298.768311,278.930756 296.630035,281.258942 
	C294.265045,283.834015 291.958130,286.463074 289.565704,289.012146 
	C288.240448,290.424194 287.420441,291.548492 288.565186,293.757782 
	C290.103027,296.725769 288.239594,298.113434 285.314117,298.059143 
	C280.525940,297.970276 276.464264,300.667450 275.343201,305.281891 
	C274.911896,307.057068 274.543945,308.592987 272.625549,308.963196 
	C268.433777,309.772125 266.649017,313.508453 263.844666,315.994812 
	C263.131470,316.627136 262.455994,317.412018 263.138916,318.588043 
	C266.043060,323.588898 262.155487,323.580658 258.311340,324.028503 
M340.582184,277.220032 
	C342.555420,282.424255 348.084961,282.319061 352.709747,286.389984 
	C352.086884,234.513229 351.483276,184.241699 350.879700,133.970169 
	C348.822388,135.828384 349.281464,137.845871 349.862000,139.884048 
	C350.341614,141.567841 350.457520,143.181183 348.816406,144.383255 
	C344.842590,147.293991 344.670929,150.730804 347.158783,154.755615 
	C348.440674,156.829453 350.087494,159.145706 348.376953,161.675568 
	C346.472687,164.492020 344.341858,161.221664 342.476410,161.255493 
	C339.962158,165.911987 340.889893,169.835068 343.414307,173.757370 
	C344.600281,175.600082 345.241943,178.078827 343.479187,179.785278 
	C341.427094,181.771866 339.984955,179.234573 338.348938,178.374634 
	C338.136200,178.262802 337.760559,178.460785 337.498260,178.508408 
	C335.293671,181.384094 336.509064,184.207626 337.498810,187.058121 
	C338.284485,189.320786 339.155823,192.351959 336.081909,192.902618 
	C329.899017,194.010269 332.049652,197.330643 333.609833,200.419739 
	C336.634521,206.408417 335.879059,207.712158 329.087769,207.502472 
	C327.606018,209.513565 328.756348,211.268661 329.621674,213.066208 
	C330.413483,214.710999 330.699890,216.743332 328.856232,217.444489 
	C323.021667,219.663528 325.151550,222.901779 327.285522,226.385269 
	C328.058502,227.647079 328.620972,229.069214 329.078064,230.483292 
	C329.446106,231.621918 329.343811,232.853226 328.208130,233.614212 
	C327.131012,234.335922 326.071594,234.125336 324.941528,233.489532 
	C324.008881,232.964752 323.967072,231.222504 322.592773,231.563065 
	C318.306091,237.103882 318.989471,242.349106 322.630768,247.793869 
	C323.929077,249.735153 325.350830,252.661209 322.554413,254.489792 
	C320.066650,256.116547 318.853882,253.367722 317.373627,251.941010 
	C317.177704,251.752167 316.802155,251.749634 316.511078,251.661194 
	C312.024506,263.395691 312.133148,264.398376 318.198486,265.247803 
	C318.487549,264.177521 318.715942,263.055115 319.095551,261.986420 
	C319.795990,260.014282 320.063538,257.254120 323.062408,257.849213 
	C326.060059,258.444061 325.381683,261.168365 325.150177,263.198944 
	C324.295319,270.696350 326.480377,273.464539 334.353333,274.477234 
	C335.609924,272.283875 333.996948,267.526062 338.152771,268.140625 
	C342.377869,268.765472 341.138153,272.903503 340.839203,275.979584 
	C340.823273,276.143646 340.763306,276.303406 340.582184,277.220032 
M50.395344,212.500778 
	C50.395344,233.606277 50.395344,254.711777 50.395344,275.817261 
	C51.960983,273.391846 52.822311,270.864746 53.934662,268.453430 
	C54.835453,266.500702 55.941643,264.107910 58.668964,265.208405 
	C61.063652,266.174683 60.508522,268.654968 59.905354,270.480286 
	C58.671333,274.214752 57.076118,277.829834 55.342953,282.220337 
	C60.599045,279.970734 65.061340,278.268799 67.098785,272.957886 
	C68.244415,269.971588 70.140755,266.743469 74.002831,270.584747 
	C74.903709,271.480774 75.760544,271.084320 76.736252,270.740417 
	C88.704880,266.521942 90.094971,263.766479 85.963684,252.286575 
	C85.866631,252.016876 85.579651,251.815536 85.395683,251.599258 
	C83.250679,252.520401 82.177429,256.611847 79.266907,254.271835 
	C76.624245,252.147171 78.593849,249.378891 79.683815,246.992371 
	C80.236328,245.782623 81.010277,244.668732 81.506508,243.439789 
	C82.252083,241.593307 82.912239,239.751770 82.267288,237.639694 
	C79.204979,227.611282 76.126221,217.585587 73.279343,207.495178 
	C72.503830,204.746475 69.401199,203.261215 69.753761,199.999115 
	C70.598595,192.182312 66.025276,185.667267 64.865211,178.398819 
	C58.887764,178.823517 58.161983,177.883667 59.481110,172.237534 
	C60.365032,168.454163 61.799271,164.654221 59.764095,160.475616 
	C58.344368,162.873367 58.850098,167.063568 55.104630,166.233994 
	C51.115700,165.350479 53.035133,161.706329 53.111683,159.080368 
	C53.125950,158.590744 53.354050,158.111252 53.434246,157.619080 
	C54.779289,149.364044 55.579121,141.149094 51.052017,132.316269 
	C51.809170,159.379929 50.242016,185.427353 50.395344,212.500778 
M67.421509,290.872375 
	C69.449509,292.007629 72.364601,293.199371 71.122856,295.885864 
	C69.843056,298.654694 66.791649,297.455597 64.500061,296.677887 
	C62.169319,295.886902 59.959232,294.740448 57.696308,293.749634 
	C57.622963,293.935516 57.549614,294.121399 57.476265,294.307281 
	C74.086525,303.632446 90.696777,312.957642 108.230034,322.800995 
	C105.856033,317.765656 108.041748,316.669678 111.560745,316.673096 
	C113.557678,316.675018 115.555634,316.762970 117.551079,316.856018 
	C119.461235,316.945068 121.058807,317.070251 121.447243,314.333893 
	C121.856674,311.449677 123.919075,311.482513 125.868622,313.013885 
	C128.778397,315.299561 131.181244,318.098969 132.764053,321.452515 
	C133.685349,323.404449 132.881378,326.082489 130.772476,325.175446 
	C125.654068,322.973877 121.192413,323.329132 116.626778,326.148743 
	C116.078445,326.487366 115.199028,325.416748 114.386932,326.405518 
	C137.203903,339.052856 159.942627,351.656860 182.681366,364.260864 
	C179.657471,358.652374 175.753113,354.731201 169.055710,354.732941 
	C166.908722,354.733490 164.218018,353.934906 163.591187,351.181396 
	C162.935318,348.300354 166.520844,349.150330 167.426727,347.372070 
	C165.040344,342.637695 161.925079,339.412750 156.015228,340.879852 
	C155.086349,341.110474 154.006180,341.001831 153.051132,340.795105 
	C151.527206,340.465240 150.154892,339.746735 150.066589,337.924500 
	C149.991699,336.379425 150.989182,335.554840 152.322464,334.984039 
	C153.159378,334.625732 154.436325,335.050903 154.796051,333.570740 
	C153.162750,331.311127 151.654999,329.398590 148.072556,329.651215 
	C143.344742,329.984650 142.282608,327.543060 144.891754,322.973663 
	C141.433044,319.375946 138.815292,314.762756 133.488129,313.131561 
	C131.993561,312.673950 132.121017,311.054565 131.462738,310.020233 
	C127.831116,304.313782 124.039421,298.472565 117.276192,296.175171 
	C114.480545,295.225494 113.058510,294.599823 113.169243,291.283295 
	C113.308739,287.104980 105.633972,280.715210 101.352165,280.870636 
	C98.113068,280.988281 96.800941,279.592865 97.539803,276.270660 
	C98.355240,272.604126 94.618706,268.373779 91.497002,269.797394 
	C86.016914,272.296539 80.560287,275.041748 75.273026,279.160339 
	C78.398392,280.533295 80.867676,281.464783 83.180252,282.691681 
	C84.554482,283.420776 85.475822,284.785065 84.715126,286.461365 
	C83.979813,288.081757 82.439041,288.481140 80.903214,287.953735 
	C78.390381,287.090912 75.952492,286.003784 73.502396,284.965454 
	C67.243401,282.312927 64.893341,282.863739 60.112553,288.305756 
	C62.369492,289.096588 64.541656,289.857727 67.421509,290.872375 
M250.466843,79.169914 
	C254.628723,80.331085 258.777588,81.542763 262.960846,82.621033 
	C264.135254,82.923759 265.616730,83.918846 266.563782,82.308647 
	C269.530975,77.263832 272.144318,80.230278 274.139496,82.908981 
	C277.327179,87.188728 281.575653,88.245071 287.380493,88.625717 
	C285.666595,87.088257 284.684509,86.241859 283.741913,85.353546 
	C282.346558,84.038521 281.016571,82.410934 282.248322,80.575531 
	C283.783234,78.288414 285.890747,79.590614 287.511841,80.660324 
	C290.981323,82.949783 294.224701,85.584625 297.714905,87.839249 
	C301.683990,90.403198 305.060516,94.070366 310.299927,95.066284 
	C310.493927,93.064163 311.204010,91.482536 312.916138,90.136131 
	C276.729340,69.661003 241.058609,49.477894 205.387894,29.294781 
	C205.022507,29.606524 204.657120,29.918264 204.291733,30.230007 
	C205.137497,34.380497 201.737564,39.306652 207.049057,42.611198 
	C208.979874,43.812450 211.992004,44.254707 211.303207,47.275421 
	C210.519485,50.712391 207.482025,48.667805 205.420166,49.007641 
	C205.123810,49.056488 204.862869,49.320103 204.586060,49.484016 
	C203.705246,52.337357 204.805527,53.956734 207.657745,54.555599 
	C208.629990,54.759731 209.593842,55.039616 210.529617,55.374153 
	C212.429565,56.053364 213.857086,57.259357 213.306946,59.451263 
	C212.759048,61.634323 210.840073,61.254005 209.178528,61.137756 
	C207.757736,61.038353 206.365479,59.835342 204.614883,61.254044 
	C204.312332,63.245724 203.216278,66.142426 206.348083,66.757149 
	C209.780457,67.430862 213.221100,71.625641 216.972748,67.514061 
	C219.656082,64.573296 221.335770,66.673042 222.951950,68.654312 
	C224.063126,70.016518 224.226105,72.105011 226.388275,72.654648 
	C230.878830,73.796173 235.341125,75.048897 239.707520,76.226898 
	C241.234085,74.686157 240.511368,71.630775 243.398987,71.803703 
	C245.724899,71.943008 246.668900,73.839951 247.687439,75.567520 
	C248.345566,76.683792 248.396851,78.194122 250.466843,79.169914 
M187.919586,34.479362 
	C149.417633,56.220821 110.915665,77.962288 72.413704,99.703751 
	C77.100960,99.893646 80.996262,99.023865 84.165680,95.371056 
	C88.269066,90.641823 90.282005,90.773842 95.304184,94.601250 
	C98.776634,92.162201 101.465355,88.642174 105.346176,86.598412 
	C110.105789,84.091843 111.477615,84.629883 112.534813,89.849663 
	C116.833138,89.081268 120.941849,88.033592 124.148949,84.673119 
	C125.531151,83.224838 127.466797,82.199059 129.600494,83.003448 
	C135.360931,85.175079 139.696472,83.429039 143.304474,78.652473 
	C144.686020,76.823448 147.201004,74.643333 149.149139,76.968430 
	C152.840576,81.374138 155.782013,78.059280 158.511688,76.448959 
	C160.656586,75.183632 162.409134,75.070831 164.792480,74.908371 
	C170.423172,74.524559 176.495544,74.038277 180.801819,69.678741 
	C182.963577,67.490250 184.342422,66.365623 187.492874,68.095802 
	C190.709595,69.862396 194.029953,67.893303 196.869507,66.283073 
	C198.448792,65.387505 198.234222,63.428986 197.005981,61.758808 
	C194.815414,60.849747 191.134338,64.065659 190.140884,60.247768 
	C189.095459,56.230133 193.170105,56.224983 195.564865,55.147839 
	C198.785110,53.699394 198.067886,51.412949 197.240860,48.708302 
	C196.231308,48.892189 195.442841,49.066566 194.645401,49.174767 
	C192.878265,49.414532 190.800842,50.237038 190.008530,47.747417 
	C189.309555,45.551075 190.974808,44.384495 192.525116,43.361179 
	C198.528458,39.398514 199.278702,37.220028 196.836243,29.627985 
	C194.032272,31.155022 191.298813,32.643658 187.919586,34.479362 
z"/>
<path fill="#000000" opacity="1.000000" stroke="none" 
	d="
M241.818115,184.526245 
	C244.740356,193.031754 244.964569,201.221710 242.181168,209.384781 
	C239.564117,217.059952 234.156616,221.031372 226.597183,221.077530 
	C218.414917,221.127487 212.112747,216.687195 209.621292,208.900620 
	C206.699799,199.770004 207.760742,190.855118 211.422165,182.142502 
	C214.120041,175.722733 219.080627,172.875107 225.917694,172.682190 
	C232.703766,172.490662 237.301987,175.663712 240.370789,181.460739 
	C240.837311,182.342026 241.230896,183.261902 241.818115,184.526245 
M219.701096,210.837082 
	C225.507904,214.641403 229.863449,214.631714 233.026657,210.807419 
	C238.032257,204.755707 237.663559,188.999420 232.376801,183.035202 
	C228.901367,179.114426 222.216309,179.115509 219.192078,183.074799 
	C214.740585,188.902664 213.494812,205.248016 219.701096,210.837082 
z"/>
<path fill="#000000" opacity="1.000000" stroke="none" 
	d="
M181.546844,192.546326 
	C183.108139,191.032074 184.529388,189.838898 185.619629,188.395691 
	C187.736420,185.593643 188.418579,182.466690 185.489136,179.904175 
	C182.487762,177.278717 179.083664,177.518860 175.914688,179.913452 
	C173.847214,181.475693 172.797760,183.733765 171.823868,186.066772 
	C171.007019,188.023590 169.660751,189.725555 167.269073,188.891602 
	C164.670120,187.985428 164.756714,185.773911 165.269348,183.475403 
	C167.155426,175.018661 176.228790,169.127640 184.672256,170.931396 
	C194.024612,172.929306 197.599625,184.507324 191.490311,192.985245 
	C189.103195,196.297867 185.655380,198.386154 182.526413,200.850479 
	C179.060379,203.580246 175.367462,206.124069 173.344345,210.731201 
	C178.493057,210.731201 183.242950,210.595566 187.980667,210.777252 
	C191.332047,210.905777 196.336853,210.167389 196.469376,214.641098 
	C196.617920,219.654572 191.521515,218.285446 188.290741,218.347488 
	C183.137360,218.446442 177.997574,218.319031 172.847946,218.941910 
	C169.895401,219.299026 166.570068,219.212692 164.640915,216.458527 
	C162.580322,213.516739 164.640915,210.694031 165.892502,208.058350 
	C169.174469,201.147034 175.197174,196.916168 181.546844,192.546326 
z"/>
<path fill="#000000" opacity="1.000000" stroke="none" 
	d="
M96.264175,129.132584 
	C104.687225,123.180038 111.847771,126.325119 113.224945,136.270279 
	C113.786469,140.325348 114.141502,144.409012 114.719482,149.649216 
	C117.334671,145.767593 119.293678,142.770798 121.350250,139.842529 
	C122.491890,138.217010 123.674812,136.586166 125.061989,135.177139 
	C126.429535,133.788040 128.296356,133.137085 130.047943,134.349213 
	C131.930008,135.651596 131.369461,137.532074 130.578064,139.282806 
	C130.373199,139.735992 130.160995,140.201202 129.865097,140.595551 
	C125.461006,146.464890 121.691063,152.703217 118.574890,159.357422 
	C117.592232,161.455780 116.223228,163.734695 113.511040,163.578644 
	C110.572777,163.409607 109.537415,160.911606 108.722412,158.478745 
	C107.230560,154.025436 106.757217,149.436676 106.572052,144.751511 
	C106.426926,141.079391 106.807465,137.131836 104.075752,133.994919 
	C97.637383,137.625931 95.846001,141.197479 97.004669,147.771912 
	C97.360878,149.793091 97.766907,151.959747 95.270988,152.837479 
	C92.732811,153.730072 91.109871,152.143372 90.095406,150.074448 
	C87.566200,144.916351 88.658546,140.022522 91.593483,135.417404 
	C92.928024,133.323410 94.519432,131.393143 96.264175,129.132584 
z"/>
<path fill="#000000" opacity="1.000000" stroke="none" 
	d="
M135.918457,108.102753 
	C134.289322,112.204224 130.801315,113.793465 127.929329,112.154747 
	C126.406380,111.285759 125.615555,109.679642 126.762581,108.489326 
	C129.398865,105.753540 132.542053,104.876137 135.918457,108.102753 
z"/>
<path fill="#000000" opacity="1.000000" stroke="none" 
	d="
M90.423607,198.895905 
	C95.325989,198.714249 96.250107,201.793396 96.071465,205.407059 
	C95.979889,207.259384 94.238640,208.040283 92.745728,207.149506 
	C89.669540,205.314056 87.511551,202.877686 90.423607,198.895905 
z"/>
<path fill="#000000" opacity="1.000000" stroke="none" 
	d="
M97.065201,182.327347 
	C101.146172,179.678757 103.074089,182.087082 104.424591,185.217972 
	C105.123024,186.837143 104.233406,188.451340 102.480736,188.516769 
	C98.646584,188.659927 96.679764,186.617157 97.065201,182.327347 
z"/>
<path fill="#000000" opacity="1.000000" stroke="none" 
	d="
M148.312103,91.244820 
	C150.498123,89.905556 152.441238,89.572075 153.862274,91.576408 
	C154.700119,92.758179 154.285278,94.148689 153.173767,95.137383 
	C151.805008,96.354919 150.196304,96.682648 148.614151,95.702309 
	C146.854874,94.612236 146.781769,93.105339 148.312103,91.244820 
z"/>
<path fill="#000000" opacity="1.000000" stroke="none" 
	d="
M309.130157,149.278580 
	C305.254974,150.896271 301.182556,150.448105 297.597992,152.680466 
	C298.653748,155.352341 298.958771,158.597244 303.194611,156.597916 
	C305.484985,155.516891 308.167023,154.087997 309.743011,157.109879 
	C311.323914,160.141296 309.008240,161.989731 306.556763,163.422836 
	C305.996918,163.750107 305.510223,164.202515 304.793274,164.746536 
	C305.603546,166.934814 306.560425,169.025604 307.128906,171.217163 
	C307.550903,172.844040 307.420044,174.614365 305.530609,175.495499 
	C303.518616,176.433777 301.631592,175.723175 300.827271,173.965439 
	C299.046539,170.073898 296.877777,167.658752 292.176697,169.424927 
	C291.088623,169.833725 289.854950,169.197433 289.239563,168.029877 
	C288.450073,166.531967 288.588318,164.795807 289.830994,163.904434 
	C293.764587,161.082809 292.089966,158.659973 289.961212,155.674957 
	C285.748444,149.767670 286.951691,146.709000 293.845428,144.958145 
	C298.030701,143.895187 302.235352,142.902130 306.451935,141.971298 
	C308.640198,141.488205 310.971649,141.321930 311.963531,143.921432 
	C312.874695,146.309326 311.850739,148.117340 309.130157,149.278580 
z"/>
<path fill="#000000" opacity="1.000000" stroke="none" 
	d="
M290.378998,116.564362 
	C292.998016,118.038773 295.715668,119.018387 295.484406,122.403267 
	C295.266052,125.598831 292.354858,125.975868 290.265381,127.100914 
	C287.637177,128.516022 284.958893,129.899384 282.168457,130.936584 
	C278.621552,132.254974 275.657623,133.513031 277.891754,138.243805 
	C278.569885,139.679764 277.733765,141.273544 276.193390,141.965790 
	C274.470642,142.740021 272.774078,142.253616 271.818237,140.669724 
	C269.423431,136.701279 267.092194,132.683289 264.989624,128.555710 
	C264.242645,127.089279 264.379242,125.253510 265.853180,123.979919 
	C266.954895,123.027962 268.537476,122.559151 269.512695,123.548882 
	C274.880035,128.996170 278.595642,123.460907 283.051514,122.320915 
	C282.816101,121.415276 282.833466,121.018341 282.643524,120.823097 
	C280.751678,118.878601 277.400757,117.079048 280.040649,113.952606 
	C282.352539,111.214607 285.187317,113.059601 287.590973,114.696495 
	C288.414062,115.256996 289.229584,115.828568 290.378998,116.564362 
z"/>
<path fill="#000000" opacity="1.000000" stroke="none" 
	d="
M316.777832,199.563293 
	C312.995056,201.565109 311.785889,200.008865 312.355469,196.635071 
	C312.862946,193.628967 312.509216,190.101883 316.084106,188.468811 
	C316.899231,188.096420 317.813232,188.150757 318.323364,188.946732 
	C320.323914,192.068100 318.851135,195.016144 317.738800,197.959869 
	C317.564056,198.422348 317.265381,198.838013 316.777832,199.563293 
z"/>
<path fill="#000000" opacity="1.000000" stroke="none" 
	d="
M257.708160,97.288635 
	C255.277100,97.315475 253.293091,97.243599 251.392807,96.451843 
	C250.278275,95.987465 249.206741,95.466911 248.919540,94.205757 
	C248.511490,92.413895 249.362030,91.199898 251.109283,90.947792 
	C254.717468,90.427177 258.314331,90.700424 260.446259,94.092758 
	C261.710846,96.104958 260.103180,97.066628 257.708160,97.288635 
z"/>
<path fill="#000000" opacity="1.000000" stroke="none" 
	d="
M261.696564,119.024513 
	C258.828491,119.390556 256.116791,119.276169 256.359222,116.060059 
	C256.561737,113.373459 259.204529,113.250336 261.441437,113.505989 
	C262.596100,113.637947 263.735718,114.009140 264.072845,115.380638 
	C264.512085,117.167542 263.549530,118.175247 261.696564,119.024513 
z"/>
<path fill="#000000" opacity="1.000000" stroke="none" 
	d="
M295.397736,185.159088 
	C297.875031,184.501587 299.539948,184.984207 299.687439,187.412567 
	C299.796356,189.206161 298.694214,190.527298 297.098816,191.358292 
	C295.773071,192.048782 294.347412,192.070511 293.504913,190.815826 
	C291.973572,188.535233 293.064209,186.753677 295.397736,185.159088 
z"/>
<path fill="#000000" opacity="1.000000" stroke="none" 
	d="
M182.566864,299.805237 
	C188.626358,293.747864 202.690231,291.422974 209.858749,294.946655 
	C215.650101,297.793427 220.046539,305.575226 214.532440,311.356842 
	C213.085968,312.873505 213.725952,314.232208 214.378464,315.878815 
	C217.636612,324.100616 214.215744,330.009247 205.478531,331.355347 
	C200.614410,332.104736 195.885223,331.614014 191.393326,329.434021 
	C185.583710,326.614532 183.856842,323.125519 185.927765,317.012878 
	C186.760071,314.556183 185.792313,313.349792 184.319427,311.857178 
	C180.949692,308.442322 179.802078,304.573242 182.566864,299.805237 
M206.443100,301.491028 
	C201.976624,300.847168 197.502502,301.182159 193.047211,301.537109 
	C191.372787,301.670563 189.836777,302.503510 189.354675,304.386505 
	C189.080490,305.457336 189.575897,306.299835 190.344940,307.025757 
	C193.082077,309.609497 203.937820,310.492340 206.914230,308.218933 
	C209.455811,306.277649 211.205261,304.091522 206.443100,301.491028 
M202.194794,317.074890 
	C198.488144,317.075775 194.625290,316.748932 192.684311,321.342346 
	C195.845886,323.643005 199.126968,323.967987 202.433884,323.980682 
	C204.726715,323.989502 207.790527,324.157440 208.134430,321.293365 
	C208.511200,318.155457 205.551758,317.548035 202.194794,317.074890 
z"/>
<path fill="#000000" opacity="1.000000" stroke="none" 
	d="
M226.550232,298.807800 
	C226.615097,297.624542 226.613251,296.755554 226.905518,296.000427 
	C227.669937,294.025299 228.849182,292.474609 231.299911,292.712402 
	C232.457123,292.824677 233.060471,293.524170 233.205338,294.649567 
	C233.501816,296.952728 233.014297,299.026550 231.021912,300.387878 
	C229.197281,301.634583 227.569916,301.447906 226.550232,298.807800 
z"/>
<path fill="#000000" opacity="1.000000" stroke="none" 
	d="
M142.434265,290.000702 
	C141.535645,289.463959 140.945541,289.132629 140.510223,288.659058 
	C139.248489,287.286255 138.209793,285.754272 139.165207,283.815735 
	C139.874023,282.377533 141.244217,282.302704 142.573654,282.773804 
	C144.812561,283.567078 146.060486,285.296143 146.116348,287.603333 
	C146.166718,289.683472 144.790863,290.430328 142.434265,290.000702 
z"/>
<path fill="#000000" opacity="1.000000" stroke="none" 
	d="
M274.123535,329.121124 
	C269.783051,327.868622 269.269318,325.051025 270.223663,321.561127 
	C272.987274,311.454956 290.584167,303.427979 299.983643,308.050323 
	C301.136108,308.617065 302.236389,309.546295 303.007080,310.573059 
	C304.174866,312.128876 304.577301,313.997864 303.065826,315.606384 
	C301.461853,317.313263 299.776459,316.561279 298.134460,315.475433 
	C292.117523,311.496277 290.521515,312.086761 288.053070,318.901733 
	C285.773560,325.195160 281.059662,328.397949 274.123535,329.121124 
z"/>
<path fill="#000000" opacity="1.000000" stroke="none" 
	d="
M305.800232,292.609619 
	C309.614014,291.269287 314.154053,292.580872 315.653534,287.083405 
	C316.308075,284.683777 319.404663,285.773315 320.990387,287.572266 
	C322.906372,289.745941 324.182556,292.668182 321.066956,294.359650 
	C314.447693,297.953308 306.954834,298.850037 299.592163,299.892914 
	C298.372620,300.065674 297.430969,299.043365 297.261261,297.736786 
	C297.094238,296.450867 297.821136,295.504272 298.841217,294.848450 
	C300.830109,293.569763 303.082489,293.019623 305.800232,292.609619 
z"/>
<path fill="#000000" opacity="1.000000" stroke="none" 
	d="
M338.043274,216.016022 
	C343.370605,213.159546 346.710419,214.238159 348.147491,219.630417 
	C350.553680,228.659103 349.581573,237.754013 347.584839,246.754044 
	C347.178131,248.587219 345.960693,249.751419 343.976318,249.364426 
	C342.063812,248.991409 342.056763,247.280746 342.034668,245.788971 
	C341.998352,243.332626 343.226318,240.935699 342.522766,238.456635 
	C334.499451,236.813980 331.828156,231.634842 334.378540,222.853745 
	C335.079071,220.441711 335.943604,218.110931 338.043274,216.016022 
M341.638702,222.475815 
	C339.864929,226.176178 339.864929,226.176178 340.960297,229.270386 
	C342.746460,226.125549 342.746460,226.125549 341.638702,222.475815 
z"/>
<path fill="#000000" opacity="1.000000" stroke="none" 
	d="
M341.895935,188.612366 
	C343.315918,186.226624 344.881531,186.256409 346.574768,187.736435 
	C348.273315,189.221161 348.785461,191.204300 347.945435,193.164673 
	C347.018829,195.327072 345.228943,195.463058 343.495331,193.957870 
	C342.008881,192.667252 341.539032,190.921722 341.895935,188.612366 
z"/>
<path fill="#000000" opacity="1.000000" stroke="none" 
	d="
M60.219864,229.525940 
	C58.375835,233.383148 56.588657,231.505356 55.388279,229.645920 
	C52.211224,224.724579 50.886333,219.265045 52.062454,213.446320 
	C53.038479,208.617569 57.119072,207.794037 61.151657,207.250565 
	C61.843575,204.375519 59.933571,202.272675 59.721695,199.847076 
	C59.595242,198.399399 59.049671,196.677551 60.931625,195.954666 
	C62.583111,195.320312 64.043190,196.192032 64.745789,197.567871 
	C67.947174,203.836990 69.418213,210.683868 70.995071,217.475128 
	C71.263367,218.630646 70.626068,219.784241 69.474419,220.392944 
	C68.047554,221.147156 66.938210,220.313797 65.825829,219.556213 
	C63.541222,218.000275 62.165985,215.182892 58.496441,214.496078 
	C56.151821,219.786087 61.163895,224.216370 60.219864,229.525940 
z"/>
<path fill="#000000" opacity="1.000000" stroke="none" 
	d="
M65.917374,246.751587 
	C67.958855,247.336853 70.012726,247.747238 69.843140,250.135010 
	C69.685669,252.352173 67.681931,252.970459 65.841255,253.168106 
	C63.205753,253.451111 60.369930,253.787628 58.559917,251.194763 
	C56.852757,248.749207 58.202789,246.466064 59.282875,244.191986 
	C61.886986,238.709076 65.678917,233.740936 65.905418,227.244858 
	C65.990494,224.804703 68.108353,224.237305 69.869614,225.780487 
	C72.652893,228.219162 74.543404,231.380890 75.338570,235.044022 
	C75.659866,236.524185 74.745308,238.141800 73.361588,237.952240 
	C66.327187,236.988495 67.574814,243.109619 65.917374,246.751587 
z"/>
<path fill="#000000" opacity="1.000000" stroke="none" 
	d="
M54.031609,191.616730 
	C53.878296,190.579971 53.744770,189.909210 53.856827,189.282349 
	C54.184895,187.447083 54.815960,185.655533 56.906033,185.293900 
	C58.685959,184.985901 59.637569,186.263107 59.923862,187.833725 
	C60.320168,190.007858 60.163235,192.226898 58.135315,193.564423 
	C56.317665,194.763260 55.109970,193.501816 54.031609,191.616730 
z"/>
<path fill="#000000" opacity="1.000000" stroke="none" 
	d="
M98.675400,291.685486 
	C105.131126,292.578827 109.843758,295.154877 111.636810,301.423523 
	C112.755119,305.333221 111.373093,308.282349 107.824371,310.137024 
	C100.836105,313.789307 89.165237,309.564972 86.059219,302.319611 
	C83.735443,296.898956 85.558250,293.120911 91.301956,291.990540 
	C93.547028,291.548706 95.918564,291.749542 98.675400,291.685486 
M105.187271,304.008881 
	C104.357094,298.022461 97.358673,295.399231 91.819481,298.998199 
	C94.487175,304.493652 98.488441,306.194183 105.187271,304.008881 
z"/>
<path fill="#000000" opacity="1.000000" stroke="none" 
	d="
M229.940063,65.016609 
	C227.815201,62.271976 229.026764,60.466972 230.958755,58.788002 
	C232.583038,57.376423 234.255966,56.002090 235.735626,54.447784 
	C237.367126,52.733990 239.205597,51.295422 241.266312,53.172031 
	C243.465378,55.174629 241.743057,57.042931 240.249771,58.695248 
	C239.711914,59.290375 239.226685,59.933056 238.390228,60.953022 
	C240.887070,62.215179 242.688965,63.695969 244.798004,60.512115 
	C246.621567,57.759251 248.806366,59.291065 249.935440,61.225689 
	C251.950439,64.678223 254.786682,65.883270 258.584106,65.909523 
	C260.005798,65.919350 261.528046,66.526794 262.812103,67.218712 
	C264.207703,67.970726 264.983978,69.326164 264.268372,71.005112 
	C263.642365,72.473824 254.320129,75.279549 253.421875,74.094292 
	C249.070633,68.352859 242.420288,68.629410 236.396881,67.192390 
	C234.316772,66.696129 232.304962,65.913612 229.940063,65.016609 
z"/>
<path fill="#000000" opacity="1.000000" stroke="none" 
	d="
M271.145264,69.876823 
	C272.154358,70.028870 272.837463,70.097420 273.382263,70.408295 
	C275.000122,71.331497 276.410980,72.498230 276.009949,74.638870 
	C275.727234,76.148003 274.589386,76.829269 273.131470,76.688423 
	C271.039337,76.486313 269.384796,75.427856 268.579773,73.453468 
	C267.752289,71.423927 268.956299,70.431618 271.145264,69.876823 
z"/>
<path fill="#000000" opacity="1.000000" stroke="none" 
	d="
M156.641327,70.067505 
	C154.994217,66.664925 155.760620,64.245453 158.601227,62.468208 
	C159.759445,61.743557 160.504608,60.841824 161.017380,59.475735 
	C163.433167,53.039944 169.838013,49.499210 176.446716,50.807095 
	C178.656815,51.244484 180.591568,52.129303 181.202621,54.610729 
	C182.461838,59.724216 178.296936,68.545677 173.292892,70.473839 
	C167.904373,72.550125 162.318314,74.986580 156.641327,70.067505 
z"/>
<path fill="#000000" opacity="1.000000" stroke="none" 
	d="
M140.991867,64.895981 
	C143.471893,62.079388 146.436798,58.633759 149.402237,61.659168 
	C152.236649,64.550903 147.971008,66.791588 145.957962,68.644562 
	C142.532761,71.797379 138.877335,74.724197 135.134033,77.496712 
	C133.365707,78.806442 130.898346,80.729858 129.069290,78.000427 
	C127.525696,75.696991 129.758072,74.096977 131.466766,72.705437 
	C134.556412,70.189285 138.255142,68.422920 140.991867,64.895981 
z"/>
<path fill="#000000" opacity="1.000000" stroke="none" 
	d="
M115.996338,82.620789 
	C113.463120,81.532677 113.336586,79.814781 114.445282,78.071861 
	C115.569077,76.305222 117.407333,75.358253 119.525726,75.717018 
	C121.800865,76.102318 121.956085,77.774117 121.013313,79.446495 
	C120.022728,81.203697 118.550194,82.531082 115.996338,82.620789 
z"/>
</svg>